<svg version="1.1" id="Layer_1" xmlns="http://www.w3.org/2000/svg" xmlns:xlink="http://www.w3.org/1999/xlink" x="0px" y="0px"
	 width="100%" viewBox="0 0 500 500" enable-background="new 0 0 500 500" xml:space="preserve">
<path fill="#000000" opacity="1.000000" stroke="none" 
	d="
M318.000000,501.000000 
	C212.000031,501.000000 106.500053,501.000000 1.000057,501.000000 
	C1.000038,334.333405 1.000038,167.666794 1.000019,1.000146 
	C167.666565,1.000097 334.333130,1.000097 500.999756,1.000049 
	C500.999847,167.666519 500.999847,334.333038 500.999939,500.999786 
	C440.166656,501.000000 379.333344,501.000000 318.000000,501.000000 
M337.004395,239.611633 
	C340.434174,238.384521 343.923584,237.299850 347.279236,235.895630 
	C351.871796,233.973831 354.252045,235.838669 356.757233,239.796524 
	C375.344543,269.161804 394.168518,298.377411 412.970764,327.606171 
	C413.805969,328.904572 415.087006,330.759827 416.269104,330.844910 
	C421.294647,331.206635 426.361176,330.998566 432.635193,330.998566 
	C411.603424,298.313049 391.295410,266.752319 370.889984,235.040222 
	C371.808929,234.720291 371.965485,234.620316 372.123779,234.617493 
	C374.453735,234.575958 376.784058,234.511032 379.114014,234.521484 
	C395.435394,234.594635 409.887421,229.803696 421.734222,218.198380 
	C438.587097,201.689087 439.046844,177.145615 422.727875,160.094528 
	C411.246399,148.097916 396.890198,142.969009 380.525909,142.830292 
	C359.043304,142.648224 337.560791,142.350204 316.078033,142.327438 
	C299.766937,142.310150 283.455811,142.678604 267.144165,142.809525 
	C257.979980,142.883072 248.814697,142.809906 239.650024,142.838699 
	C238.440628,142.842484 237.231903,143.059113 236.679108,143.113098 
	C237.097427,146.044876 237.756165,148.518753 237.758652,150.993286 
	C237.816223,208.147980 237.819031,265.302795 237.751007,322.457458 
	C237.747742,325.202545 237.002930,327.946747 236.583221,330.830322 
	C241.929565,330.830322 247.932281,330.830322 253.432907,330.830322 
	C252.958115,327.932678 252.195419,325.348206 252.167725,322.755829 
	C252.037781,310.593079 252.438400,298.416901 252.021301,286.267090 
	C251.567688,273.054047 254.979340,261.307861 263.876648,250.904007 
	C264.585815,249.265884 265.294983,247.627762 266.754883,246.027298 
	C268.331573,245.232162 270.018555,244.599274 271.466431,243.614685 
	C279.037354,238.466232 287.151947,234.974228 296.935547,234.845184 
	C296.935547,266.901306 296.935547,298.821106 296.935547,330.840149 
	C301.921204,330.840149 306.454437,330.840149 311.288666,330.840149 
	C311.288666,315.519623 311.571838,300.527252 311.202393,285.550995 
	C310.885681,272.712799 314.258362,261.281738 322.675171,250.838776 
	C327.197327,247.164413 331.719452,243.490036 337.004395,239.611633 
M168.253357,145.016006 
	C186.722977,147.939651 205.192596,150.863297 223.760925,153.802582 
	C223.760925,150.849136 223.760925,146.968063 223.760925,143.125732 
	C172.063324,143.125732 120.670525,143.125732 69.287811,143.125732 
	C69.287811,147.224472 69.287811,151.003021 69.287811,154.939392 
	C80.884750,152.325806 92.099892,149.152252 103.532921,147.402115 
	C115.117424,145.628799 126.917320,145.262604 139.201691,144.231506 
	C139.201691,207.153015 139.201691,268.860657 139.201691,330.682617 
	C144.239288,330.682617 148.784882,330.682617 153.848801,330.682617 
	C153.848801,268.658661 153.848801,206.965439 153.848801,145.015793 
	C158.680359,145.015793 162.991058,145.015793 168.253357,145.016006 
M233.310852,375.285980 
	C232.427139,378.267822 231.543411,381.249664 230.665558,384.211731 
	C233.402344,383.596710 235.907074,383.033813 238.385895,382.476746 
	C237.735275,380.244507 237.323364,378.120270 236.451416,376.205566 
	C236.123871,375.486298 234.728333,375.253418 233.310852,375.285980 
M191.401703,386.004333 
	C192.444824,385.905548 193.487946,385.806793 194.531067,385.708008 
	C194.533707,385.497681 194.536362,385.287323 194.539001,385.076965 
	C192.807007,384.965240 191.075012,384.853485 189.461441,384.749390 
	C187.363556,379.400330 192.328476,381.896027 193.774994,380.455353 
	C192.269669,379.106842 187.356415,381.465210 189.412628,376.299133 
	C191.069458,376.110565 192.769531,375.917084 194.469604,375.723633 
	C194.456131,375.565186 194.442657,375.406738 194.429184,375.248291 
	C192.236832,375.248291 190.044464,375.248291 187.579697,375.248291 
	C187.579697,378.174194 187.310593,380.842804 187.715439,383.404938 
	C187.871948,384.395477 189.556366,385.144623 191.401703,386.004333 
z"/>
<path fill="#EEEAE8" opacity="1.000000" stroke="none" 
	d="
M322.063904,251.126755 
	C314.258362,261.281738 310.885681,272.712799 311.202393,285.550995 
	C311.571838,300.527252 311.288666,315.519623 311.288666,330.840149 
	C306.454437,330.840149 301.921204,330.840149 296.935547,330.840149 
	C296.935547,298.821106 296.935547,266.901306 296.935547,234.845184 
	C287.151947,234.974228 279.037354,238.466232 271.466431,243.614685 
	C270.018555,244.599274 268.331573,245.232162 266.438934,245.672394 
	C274.842773,237.566162 285.112518,233.408432 296.582336,232.619888 
	C296.582336,203.128143 296.582336,174.100739 296.582336,145.138351 
	C281.624756,145.138351 267.037109,145.138351 252.365326,145.138351 
	C252.365326,185.206161 252.365326,224.989944 252.365326,264.671295 
	C255.063477,260.284241 257.665314,255.899368 260.480927,251.656342 
	C260.866119,251.075897 262.316620,251.202377 263.273895,251.001556 
	C254.979340,261.307861 251.567688,273.054047 252.021301,286.267090 
	C252.438400,298.416901 252.037781,310.593079 252.167725,322.755829 
	C252.195419,325.348206 252.958115,327.932678 253.432907,330.830322 
	C247.932281,330.830322 241.929565,330.830322 236.583221,330.830322 
	C237.002930,327.946747 237.747742,325.202545 237.751007,322.457458 
	C237.819031,265.302795 237.816223,208.147980 237.758652,150.993286 
	C237.756165,148.518753 237.097427,146.044876 236.679108,143.113098 
	C237.231903,143.059113 238.440628,142.842484 239.650024,142.838699 
	C248.814697,142.809906 257.979980,142.883072 267.144165,142.809525 
	C283.455811,142.678604 299.766937,142.310150 316.078033,142.327438 
	C337.560791,142.350204 359.043304,142.648224 380.525909,142.830292 
	C396.890198,142.969009 411.246399,148.097916 422.727875,160.094528 
	C439.046844,177.145615 438.587097,201.689087 421.734222,218.198380 
	C409.887421,229.803696 395.435394,234.594635 379.114014,234.521484 
	C376.784058,234.511032 374.453735,234.575958 372.123779,234.617493 
	C371.965485,234.620316 371.808929,234.720291 370.889984,235.040222 
	C391.295410,266.752319 411.603424,298.313049 432.635193,330.998566 
	C426.361176,330.998566 421.294647,331.206635 416.269104,330.844910 
	C415.087006,330.759827 413.805969,328.904572 412.970764,327.606171 
	C394.168518,298.377411 375.344543,269.161804 356.757233,239.796524 
	C354.252045,235.838669 351.871796,233.973831 347.279236,235.895630 
	C343.923584,237.299850 340.434174,238.384521 336.562988,239.279175 
	C336.084930,238.656601 336.048309,238.366501 336.293030,237.849792 
	C342.290375,236.024200 347.919464,233.705933 353.743652,233.001938 
	C361.640137,232.047470 369.721954,232.724915 377.661041,232.005203 
	C398.977539,230.072815 415.318298,212.236633 416.471954,190.110107 
	C417.534058,169.739761 402.703094,149.596176 382.346130,146.424637 
	C368.774994,144.310287 354.767090,144.999298 340.419739,144.411758 
	C347.252411,148.623383 353.694733,151.754761 359.154419,156.116150 
	C375.965088,169.545090 380.417542,191.467102 369.838287,208.814606 
	C360.563385,224.023361 346.361755,231.972275 328.878632,233.930054 
	C323.193970,234.566635 317.377930,234.030045 311.463776,234.030045 
	C311.463776,244.931503 311.463776,254.636032 311.463776,264.030243 
	C314.547028,259.448273 317.736633,254.708267 321.164734,250.108093 
	C321.623474,250.540848 321.843689,250.833801 322.063904,251.126755 
M311.503387,156.423752 
	C311.503387,181.642990 311.503387,206.862228 311.503387,232.042389 
	C332.388458,233.728363 352.739380,217.702301 356.830414,196.726196 
	C360.957642,175.564453 347.624237,153.466370 326.875427,147.080368 
	C318.647064,144.547852 314.264954,147.003555 311.503387,156.423752 
z"/>
<path fill="#020202" opacity="1.000000" stroke="none" 
	d="
M263.575256,250.952789 
	C262.316620,251.202377 260.866119,251.075897 260.480927,251.656342 
	C257.665314,255.899368 255.063477,260.284241 252.365326,264.671295 
	C252.365326,224.989944 252.365326,185.206161 252.365326,145.138351 
	C267.037109,145.138351 281.624756,145.138351 296.582336,145.138351 
	C296.582336,174.100739 296.582336,203.128143 296.582336,232.619888 
	C285.112518,233.408432 274.842773,237.566162 266.063568,245.653564 
	C265.294983,247.627762 264.585815,249.265884 263.575256,250.952789 
z"/>
<path fill="#EAE6E3" opacity="1.000000" stroke="none" 
	d="
M167.777557,145.015900 
	C162.991058,145.015793 158.680359,145.015793 153.848801,145.015793 
	C153.848801,206.965439 153.848801,268.658661 153.848801,330.682617 
	C148.784882,330.682617 144.239288,330.682617 139.201691,330.682617 
	C139.201691,268.860657 139.201691,207.153015 139.201691,144.231506 
	C126.917320,145.262604 115.117424,145.628799 103.532921,147.402115 
	C92.099892,149.152252 80.884750,152.325806 69.287811,154.939392 
	C69.287811,151.003021 69.287811,147.224472 69.287811,143.125732 
	C120.670525,143.125732 172.063324,143.125732 223.760925,143.125732 
	C223.760925,146.968063 223.760925,150.849136 223.760925,153.802582 
	C205.192596,150.863297 186.722977,147.939651 167.777557,145.015900 
z"/>
<path fill="#212120" opacity="1.000000" stroke="none" 
	d="
M233.565277,375.042389 
	C234.728333,375.253418 236.123871,375.486298 236.451416,376.205566 
	C237.323364,378.120270 237.735275,380.244507 238.385895,382.476746 
	C235.907074,383.033813 233.402344,383.596710 230.665558,384.211731 
	C231.543411,381.249664 232.427139,378.267822 233.565277,375.042389 
z"/>
<path fill="#D5D2CF" opacity="1.000000" stroke="none" 
	d="
M322.369537,250.982758 
	C321.843689,250.833801 321.623474,250.540848 321.261047,249.782990 
	C326.083130,245.570831 331.047394,241.823608 336.011688,238.076385 
	C336.048309,238.366501 336.084930,238.656601 336.181580,239.381195 
	C331.719452,243.490036 327.197327,247.164413 322.369537,250.982758 
z"/>
<path fill="#E2E0DB" opacity="1.000000" stroke="none" 
	d="
M190.973206,386.004028 
	C189.556366,385.144623 187.871948,384.395477 187.715439,383.404938 
	C187.310593,380.842804 187.579697,378.174194 187.579697,375.248291 
	C190.044464,375.248291 192.236832,375.248291 194.429184,375.248291 
	C194.442657,375.406738 194.456131,375.565186 194.469604,375.723633 
	C192.769531,375.917084 191.069458,376.110565 189.412628,376.299133 
	C187.356415,381.465210 192.269669,379.106842 193.774994,380.455353 
	C192.328476,381.896027 187.363556,379.400330 189.461441,384.749390 
	C191.075012,384.853485 192.807007,384.965240 194.539001,385.076965 
	C194.536362,385.287323 194.533707,385.497681 194.531067,385.708008 
	C193.487946,385.806793 192.444824,385.905548 190.973206,386.004028 
z"/>
<path fill="#030303" opacity="1.000000" stroke="none" 
	d="
M336.293030,237.849792 
	C331.047394,241.823608 326.083130,245.570831 321.022522,249.643158 
	C317.736633,254.708267 314.547028,259.448273 311.463776,264.030243 
	C311.463776,254.636032 311.463776,244.931503 311.463776,234.030045 
	C317.377930,234.030045 323.193970,234.566635 328.878632,233.930054 
	C346.361755,231.972275 360.563385,224.023361 369.838287,208.814606 
	C380.417542,191.467102 375.965088,169.545090 359.154419,156.116150 
	C353.694733,151.754761 347.252411,148.623383 340.419739,144.411758 
	C354.767090,144.999298 368.774994,144.310287 382.346130,146.424637 
	C402.703094,149.596176 417.534058,169.739761 416.471954,190.110107 
	C415.318298,212.236633 398.977539,230.072815 377.661041,232.005203 
	C369.721954,232.724915 361.640137,232.047470 353.743652,233.001938 
	C347.919464,233.705933 342.290375,236.024200 336.293030,237.849792 
z"/>
<path fill="#030303" opacity="1.000000" stroke="none" 
	d="
M311.586212,156.012817 
	C314.264954,147.003555 318.647064,144.547852 326.875427,147.080368 
	C347.624237,153.466370 360.957642,175.564453 356.830414,196.726196 
	C352.739380,217.702301 332.388458,233.728363 311.503387,232.042389 
	C311.503387,206.862228 311.503387,181.642990 311.586212,156.012817 
z"/>
</svg>